<?xml version="1.0" encoding="UTF-8" standalone="no"?>
<!-- Created with Inkscape (http://www.inkscape.org/) -->

<svg
   version="1.1"
   id="svg1"
   width="256"
   height="256"
   viewBox="0 0 256 256"
   sodipodi:docname="exe_icon_paths_diff.svg"
   inkscape:version="1.4 (86a8ad7, 2024-10-11)"
   inkscape:export-filename="exe_ic22on.png"
   inkscape:export-xdpi="96.099998"
   inkscape:export-ydpi="96.099998"
   xmlns:inkscape="http://www.inkscape.org/namespaces/inkscape"
   xmlns:sodipodi="http://sodipodi.sourceforge.net/DTD/sodipodi-0.dtd"
   xmlns="http://www.w3.org/2000/svg"
   xmlns:svg="http://www.w3.org/2000/svg">
  <defs
     id="defs1" />
  <sodipodi:namedview
     id="namedview1"
     pagecolor="#ffffff"
     bordercolor="#000000"
     borderopacity="0.25"
     inkscape:showpageshadow="2"
     inkscape:pageopacity="0.0"
     inkscape:pagecheckerboard="0"
     inkscape:deskcolor="#d1d1d1"
     inkscape:zoom="1.8948252"
     inkscape:cx="62.802627"
     inkscape:cy="140.9101"
     inkscape:window-width="1600"
     inkscape:window-height="930"
     inkscape:window-x="-6"
     inkscape:window-y="-6"
     inkscape:window-maximized="1"
     inkscape:current-layer="g1" />
  <g
     inkscape:groupmode="layer"
     inkscape:label="Image"
     id="g1">
    <g
       id="path8"
       style="display:inline">
      <path
         id="path24"
         style="display:inline"
         d="M 230.93555 61.375 C 230.19682 61.360514 229.77344 61.388672 229.77344 61.388672 L 23.283203 62.060547 C -6.0846617 65.320832 1.5742188 94.414068 1.5742188 94.414062 L 14.353516 174.00781 C 17.693831 194.81368 40.759766 194.42578 40.759766 194.42578 C 40.759766 194.42578 212.02891 194.59911 217.27148 194.42578 C 237.46727 193.75808 241.90234 174.27344 241.90234 174.27344 C 241.90234 174.27344 255.51646 92.736614 255.59766 90.771484 C 256.72063 63.582803 236.10664 61.476402 230.93555 61.375 z M 46.388672 97.208984 A 10.303325 10.303325 0 0 1 56.691406 107.51172 A 10.303325 10.303325 0 0 1 46.388672 117.81445 A 10.303325 10.303325 0 0 1 36.083984 107.51172 A 10.303325 10.303325 0 0 1 46.388672 97.208984 z M 87.251953 97.208984 A 10.303325 10.303325 0 0 1 97.554688 107.51172 A 10.303325 10.303325 0 0 1 87.251953 117.81445 A 10.303325 10.303325 0 0 1 76.949219 107.51172 A 10.303325 10.303325 0 0 1 87.251953 97.208984 z M 128.11523 97.208984 A 10.303325 10.303325 0 0 1 138.41797 107.51172 A 10.303325 10.303325 0 0 1 128.11523 117.81445 A 10.303325 10.303325 0 0 1 117.8125 107.51172 A 10.303325 10.303325 0 0 1 128.11523 97.208984 z M 168.97852 97.208984 A 10.303325 10.303325 0 0 1 179.2832 107.51172 A 10.303325 10.303325 0 0 1 168.97852 117.81445 A 10.303325 10.303325 0 0 1 158.67578 107.51172 A 10.303325 10.303325 0 0 1 168.97852 97.208984 z M 209.84375 97.208984 A 10.303325 10.303325 0 0 1 220.14648 107.51172 A 10.303325 10.303325 0 0 1 209.84375 117.81445 A 10.303325 10.303325 0 0 1 199.53906 107.51172 A 10.303325 10.303325 0 0 1 209.84375 97.208984 z M 66.652344 138.29883 A 10.303325 10.303325 0 0 1 76.955078 148.60352 A 10.303325 10.303325 0 0 1 66.652344 158.90625 A 10.303325 10.303325 0 0 1 56.349609 148.60352 A 10.303325 10.303325 0 0 1 66.652344 138.29883 z M 107.7168 138.29883 A 10.303325 10.303325 0 0 1 118.01953 148.60352 A 10.303325 10.303325 0 0 1 107.7168 158.90625 A 10.303325 10.303325 0 0 1 97.414062 148.60352 A 10.303325 10.303325 0 0 1 107.7168 138.29883 z M 148.78125 138.29883 A 10.303325 10.303325 0 0 1 159.08398 148.60352 A 10.303325 10.303325 0 0 1 148.78125 158.90625 A 10.303325 10.303325 0 0 1 138.47852 148.60352 A 10.303325 10.303325 0 0 1 148.78125 138.29883 z M 189.8457 138.29883 A 10.303325 10.303325 0 0 1 200.14844 148.60352 A 10.303325 10.303325 0 0 1 189.8457 158.90625 A 10.303325 10.303325 0 0 1 179.54297 148.60352 A 10.303325 10.303325 0 0 1 189.8457 138.29883 z " />
    </g>
  </g>
</svg>
